<?xml version="1.0" encoding="UTF-8" standalone="no"?>
<svg
   xmlns:dc="http://purl.org/dc/elements/1.1/"
   xmlns:cc="http://creativecommons.org/ns#"
   xmlns:rdf="http://www.w3.org/1999/02/22-rdf-syntax-ns#"
   xmlns:svg="http://www.w3.org/2000/svg"
   xmlns="http://www.w3.org/2000/svg"
   xmlns:sodipodi="http://sodipodi.sourceforge.net/DTD/sodipodi-0.dtd"
   xmlns:inkscape="http://www.inkscape.org/namespaces/inkscape"
   viewBox="0 0 16 16"
   height="16"
   width="16"
   version="1.1"
   id="svg827"
   sodipodi:docname="arrow-right.svg"
   inkscape:version="0.92.4 (5da689c313, 2019-01-14)">
  <metadata
     id="metadata833">
    <rdf:RDF>
      <cc:Work
         rdf:about="">
        <dc:format>image/svg+xml</dc:format>
        <dc:type
           rdf:resource="http://purl.org/dc/dcmitype/StillImage" />
        <dc:title />
      </cc:Work>
    </rdf:RDF>
  </metadata>
  <defs
     id="defs831" />
  <sodipodi:namedview
     pagecolor="#ffffff"
     bordercolor="#666666"
     borderopacity="1"
     objecttolerance="10"
     gridtolerance="10"
     guidetolerance="10"
     inkscape:pageopacity="0"
     inkscape:pageshadow="2"
     inkscape:window-width="1471"
     inkscape:window-height="986"
     id="namedview829"
     showgrid="false"
     inkscape:zoom="256"
     inkscape:cx="5.4428009"
     inkscape:cy="3.8672679"
     inkscape:window-x="369"
     inkscape:window-y="0"
     inkscape:window-maximized="1"
     inkscape:current-layer="svg827"
     fit-margin-top="0"
     fit-margin-left="0"
     fit-margin-right="0"
     fit-margin-bottom="0" />
  <path
     style="fill:#787878;fill-opacity:1;stroke-width:0.01076555"
     d="M 8.4821339,11.289548 5.2201731,14.551495 4.6926605,14.023982 4.1651479,13.49647 6.8995949,10.762038 9.6340419,8.0276074 6.8995749,5.2931249 4.165109,2.5586419 4.692657,2.0311769 5.2202051,1.5037109 8.4821499,4.7656559 11.744093,8.0276005 Z"
     id="path835"
     inkscape:connector-curvature="0" />
  <path
     style="fill:#424242;fill-opacity:1;stroke-width:0.0215311"
     d="M 4.6900631,14.015644 4.173585,13.498829 6.9079029,10.764447 9.6422209,8.0300659 6.9078465,5.2956279 4.1734722,2.56119 4.695581,2.0390812 5.2176899,1.5169723 8.4742276,4.7735102 11.730766,8.030048 8.4796138,11.281253 c -1.7881333,1.788163 -3.2560837,3.251205 -3.262112,3.251205 -0.00603,0 -0.2433757,-0.232566 -0.5274387,-0.516814 z"
     id="path1388"
     inkscape:connector-curvature="0" />
  <path
     style="fill:#787878;fill-opacity:1;stroke-width:0.0215311"
     d="M 4.7008269,14.004876 4.1951196,13.498825 6.9294358,10.764446 9.663752,8.0300658 6.9293776,5.2956279 4.1950033,2.56119 4.711706,2.0445091 5.2284088,1.5278283 8.479605,4.7805234 11.730801,8.0332184 8.479605,11.271429 c -1.7881579,1.781015 -3.256118,3.2385 -3.2621335,3.238854 -0.00602,3.54e-4 -0.2385056,-0.227079 -0.5166446,-0.505407 z"
     id="path836"
     inkscape:connector-curvature="0"
     inkscape:export-xdpi="96"
     inkscape:export-ydpi="96" />
</svg>
