<?xml version="1.0" encoding="UTF-8" standalone="no"?>
<svg
   xmlns:dc="http://purl.org/dc/elements/1.1/"
   xmlns:cc="http://creativecommons.org/ns#"
   xmlns:rdf="http://www.w3.org/1999/02/22-rdf-syntax-ns#"
   xmlns:svg="http://www.w3.org/2000/svg"
   xmlns="http://www.w3.org/2000/svg"
   xmlns:sodipodi="http://sodipodi.sourceforge.net/DTD/sodipodi-0.dtd"
   xmlns:inkscape="http://www.inkscape.org/namespaces/inkscape"
   width="16"
   height="16"
   version="1.1"
   id="svg5435"
   sodipodi:docname="barchart.svg"
   inkscape:version="0.92.4 (5da689c313, 2019-01-14)">
  <metadata
     id="metadata5441">
    <rdf:RDF>
      <cc:Work
         rdf:about="">
        <dc:format>image/svg+xml</dc:format>
        <dc:type
           rdf:resource="http://purl.org/dc/dcmitype/StillImage" />
      </cc:Work>
    </rdf:RDF>
  </metadata>
  <defs
     id="defs5439" />
  <sodipodi:namedview
     pagecolor="#ffffff"
     bordercolor="#666666"
     borderopacity="1"
     objecttolerance="10"
     gridtolerance="10"
     guidetolerance="10"
     inkscape:pageopacity="0"
     inkscape:pageshadow="2"
     inkscape:window-width="1920"
     inkscape:window-height="1024"
     id="namedview5437"
     showgrid="false"
     inkscape:zoom="52.25"
     inkscape:cx="8"
     inkscape:cy="8"
     inkscape:window-x="-4"
     inkscape:window-y="-4"
     inkscape:window-maximized="1"
     inkscape:current-layer="svg5435" />
  <g
     id="g5433"
     style="fill:#bebebe;fill-opacity:1">
    <path
       d="m 4,13.529 c 0,0.275 -0.225,0.5 -0.5,0.5 h -3 c -0.275,0 -0.5,-0.225 -0.5,-0.5 v -4.25 c 0,-0.274 0.225,-0.5 0.5,-0.5 h 3 c 0.275,0 0.5,0.226 0.5,0.5 z m 6.002,0 c 0,0.275 -0.225,0.5 -0.5,0.5 H 6.5 c -0.275,0 -0.5,-0.225 -0.5,-0.5 v -13 c 0,-0.275 0.225,-0.5 0.5,-0.5 h 3.002 c 0.275,0 0.5,0.225 0.5,0.5 z m 6,0 c 0,0.275 -0.225,0.5 -0.5,0.5 h -3 c -0.275,0 -0.5,-0.225 -0.5,-0.5 v -9.5 c 0,-0.275 0.225,-0.5 0.5,-0.5 h 3 c 0.275,0 0.5,0.225 0.5,0.5 z"
       id="path5431"
       inkscape:connector-curvature="0"
       style="fill:#bebebe;fill-opacity:1" />
  </g>
</svg>
