<?xml version="1.0" encoding="UTF-8" standalone="no"?>
<svg
   xmlns:dc="http://purl.org/dc/elements/1.1/"
   xmlns:cc="http://creativecommons.org/ns#"
   xmlns:rdf="http://www.w3.org/1999/02/22-rdf-syntax-ns#"
   xmlns:svg="http://www.w3.org/2000/svg"
   xmlns="http://www.w3.org/2000/svg"
   xmlns:sodipodi="http://sodipodi.sourceforge.net/DTD/sodipodi-0.dtd"
   xmlns:inkscape="http://www.inkscape.org/namespaces/inkscape"
   width="16"
   height="16"
   version="1.1"
   id="svg4646"
   sodipodi:docname="file.svg"
   inkscape:version="0.92.4 (5da689c313, 2019-01-14)">
  <metadata
     id="metadata4652">
    <rdf:RDF>
      <cc:Work
         rdf:about="">
        <dc:format>image/svg+xml</dc:format>
        <dc:type
           rdf:resource="http://purl.org/dc/dcmitype/StillImage" />
        <dc:title></dc:title>
      </cc:Work>
    </rdf:RDF>
  </metadata>
  <defs
     id="defs4650" />
  <sodipodi:namedview
     pagecolor="#ffffff"
     bordercolor="#666666"
     borderopacity="1"
     objecttolerance="10"
     gridtolerance="10"
     guidetolerance="10"
     inkscape:pageopacity="0"
     inkscape:pageshadow="2"
     inkscape:window-width="1920"
     inkscape:window-height="1024"
     id="namedview4648"
     showgrid="false"
     inkscape:zoom="256"
     inkscape:cx="5.1568838"
     inkscape:cy="17.007546"
     inkscape:window-x="-4"
     inkscape:window-y="-4"
     inkscape:window-maximized="1"
     inkscape:current-layer="svg4646" />
  <g
     id="g4644"
     style="fill:#bebebe;fill-opacity:1">
    <path
       fill="#787878"
       d="M12.502 7h-5c-.276 0-.502-.225-.502-.5v-5c0-.275-.225-.5-.5-.5h-3c-.275 0-.5.225-.5.5v12.029c0 .275.225.5.5.5h9.002c.275 0 .5-.225.5-.5v-6.029c0-.275-.225-.5-.5-.5zM8.502 6h4c.275 0 .34-.159.146-.354l-4.293-4.292c-.195-.195-.353-.129-.353.146v4c0 .275.225.5.5.5z"
       id="path4642"
       style="fill:#bebebe;fill-opacity:1" />
  </g>
</svg>
