<?xml version="1.0" encoding="UTF-8" standalone="no"?>
<svg
   xmlns:dc="http://purl.org/dc/elements/1.1/"
   xmlns:cc="http://creativecommons.org/ns#"
   xmlns:rdf="http://www.w3.org/1999/02/22-rdf-syntax-ns#"
   xmlns:svg="http://www.w3.org/2000/svg"
   xmlns="http://www.w3.org/2000/svg"
   xmlns:sodipodi="http://sodipodi.sourceforge.net/DTD/sodipodi-0.dtd"
   xmlns:inkscape="http://www.inkscape.org/namespaces/inkscape"
   width="16"
   height="16"
   version="1.1"
   id="svg4670"
   sodipodi:docname="people.svg"
   inkscape:version="0.92.4 (5da689c313, 2019-01-14)">
  <metadata
     id="metadata4676">
    <rdf:RDF>
      <cc:Work
         rdf:about="">
        <dc:format>image/svg+xml</dc:format>
        <dc:type
           rdf:resource="http://purl.org/dc/dcmitype/StillImage" />
      </cc:Work>
    </rdf:RDF>
  </metadata>
  <defs
     id="defs4674" />
  <sodipodi:namedview
     pagecolor="#ffffff"
     bordercolor="#666666"
     borderopacity="1"
     objecttolerance="10"
     gridtolerance="10"
     guidetolerance="10"
     inkscape:pageopacity="0"
     inkscape:pageshadow="2"
     inkscape:window-width="1920"
     inkscape:window-height="1024"
     id="namedview4672"
     showgrid="false"
     inkscape:zoom="14.75"
     inkscape:cx="8"
     inkscape:cy="8"
     inkscape:window-x="-4"
     inkscape:window-y="-4"
     inkscape:window-maximized="1"
     inkscape:current-layer="svg4670" />
  <g
     id="g4668"
     style="fill:#bebebe;fill-opacity:1">
    <path
       d="m 6.722,11.291 0.451,-0.17 -0.165,-0.32 C 6.472,9.762 6.323,8.867 6.247,8.129 6.165,7.321 6.103,5.298 7.3,3.94 7.544,3.662 7.793,3.447 8.043,3.265 8.055,2.439 7.908,1.499 7.397,0.92 6.779,0.22 5.997,0.133 5.997,0.133 L 5.5,0.078 5.002,0.133 c 0,0 -0.783,0.087 -1.398,0.787 -0.617,0.702 -0.717,1.948 -0.625,2.855 0.06,0.583 0.17,1.263 0.574,2.05 0.274,0.533 0.341,0.617 0.355,1.01 C 3.93,7.43 3.935,7.988 3.237,8.373 2.54,8.756 1.673,8.881 0.834,9.461 0.238,9.871 0.125,10.494 0.054,10.92 l -0.051,0.41 c -0.029,0.273 0.173,0.498 0.448,0.498 h 5.012 c 0.457,-0.24 0.89,-0.402 1.259,-0.537 z m -1.658,3.805 c 0.07,-0.427 0.184,-1.05 0.78,-1.46 C 6.682,13.055 7.552,12.93 8.248,12.547 8.947,12.162 8.941,11.604 8.92,11.01 8.906,10.617 8.84,10.533 8.566,10 8.16,9.213 8.051,8.533 7.99,7.951 7.897,7.042 7.998,5.796 8.615,5.095 9.23,4.395 10.013,4.308 10.013,4.308 l 0.492,-0.055 h 0.002 l 0.496,0.055 c 0,0 0.781,0.087 1.396,0.787 0.615,0.701 0.72,1.947 0.623,2.855 -0.062,0.583 -0.172,1.262 -0.571,2.049 -0.271,0.533 -0.341,0.617 -0.354,1.01 -0.021,0.595 -0.062,1.22 0.637,1.604 0.697,0.385 1.604,0.527 2.438,1.104 0.923,0.641 0.822,1.783 0.822,1.783 -0.022,0.275 -0.269,0.5 -0.542,0.5 H 5.461 C 5.186,16 4.984,15.777 5.013,15.504 Z"
       id="path4666"
       inkscape:connector-curvature="0"
       style="fill:#bebebe;fill-opacity:1" />
  </g>
</svg>
