<?xml version="1.0" encoding="UTF-8" standalone="no"?>
<svg
   xmlns:dc="http://purl.org/dc/elements/1.1/"
   xmlns:cc="http://creativecommons.org/ns#"
   xmlns:rdf="http://www.w3.org/1999/02/22-rdf-syntax-ns#"
   xmlns:svg="http://www.w3.org/2000/svg"
   xmlns="http://www.w3.org/2000/svg"
   xmlns:sodipodi="http://sodipodi.sourceforge.net/DTD/sodipodi-0.dtd"
   xmlns:inkscape="http://www.inkscape.org/namespaces/inkscape"
   width="16"
   height="16"
   version="1.1"
   id="svg3725"
   sodipodi:docname="cog.svg"
   inkscape:version="0.92.4 (5da689c313, 2019-01-14)">
  <metadata
     id="metadata3731">
    <rdf:RDF>
      <cc:Work
         rdf:about="">
        <dc:format>image/svg+xml</dc:format>
        <dc:type
           rdf:resource="http://purl.org/dc/dcmitype/StillImage" />
      </cc:Work>
    </rdf:RDF>
  </metadata>
  <defs
     id="defs3729" />
  <sodipodi:namedview
     pagecolor="#ffffff"
     bordercolor="#666666"
     borderopacity="1"
     objecttolerance="10"
     gridtolerance="10"
     guidetolerance="10"
     inkscape:pageopacity="0"
     inkscape:pageshadow="2"
     inkscape:window-width="1920"
     inkscape:window-height="1024"
     id="namedview3727"
     showgrid="false"
     inkscape:zoom="52.25"
     inkscape:cx="8"
     inkscape:cy="8"
     inkscape:window-x="-4"
     inkscape:window-y="-4"
     inkscape:window-maximized="1"
     inkscape:current-layer="svg3725" />
  <path
     fill="#787878"
     d="M15.176 9.041c.045-.327.076-.658.076-.998 0-.36-.035-.71-.086-1.056l-2.275-.293c-.115-.426-.283-.827-.498-1.201l1.396-1.808c-.416-.551-.906-1.039-1.459-1.452l-1.807 1.391c-.373-.215-.774-.383-1.2-.499l-.292-2.252c-.338-.048-.677-.081-1.029-.081s-.694.033-1.032.082l-.291 2.251c-.426.116-.826.284-1.2.499l-1.805-1.391c-.552.413-1.044.901-1.459 1.452l1.395 1.808c-.215.374-.383.774-.499 1.2l-2.276.294c-.05.346-.085.696-.085 1.056 0 .34.031.671.077.998l2.285.295c.115.426.284.826.499 1.2l-1.417 1.836c.411.55.896 1.038 1.443 1.452l1.842-1.42c.374.215.774.383 1.2.498l.298 2.311c.337.047.677.08 1.025.08s.688-.033 1.021-.08l.299-2.311c.426-.115.826-.283 1.201-.498l1.842 1.42c.547-.414 1.031-.902 1.443-1.452l-1.416-1.837c.215-.373.383-.773.498-1.199l2.286-.295zm-7.174 1.514c-1.406 0-2.543-1.137-2.543-2.541 0-1.402 1.137-2.541 2.543-2.541 1.402 0 2.541 1.138 2.541 2.541 0 1.404-1.139 2.541-2.541 2.541z"
     id="path3723" />
  <path
     style="stroke-width:0.01913876"
     d="m 7.5483254,15.266346 c -0.01579,-0.0032 -0.1417248,-0.01606 -0.2798565,-0.02864 -0.1381315,-0.01258 -0.2592815,-0.02836 -0.2692222,-0.03507 -0.00994,-0.0067 -0.080419,-0.49881 -0.1566191,-1.093547 -0.0762,-0.594737 -0.1432469,-1.112233 -0.1489932,-1.149991 -0.00979,-0.06433 -0.016657,-0.0702 -0.1089789,-0.09319 -0.1825047,-0.04545 -0.555999,-0.192797 -0.8287083,-0.326943 -0.1489658,-0.07328 -0.2757811,-0.133229 -0.2818117,-0.133229 -0.00603,0 -0.4080057,0.306074 -0.8932779,0.680166 -0.485272,0.374091 -0.8981812,0.690076 -0.9175759,0.702188 -0.03029,0.01892 -0.06173,5.94e-4 -0.2229355,-0.129927 C 3.0804486,13.366778 2.5433025,12.816849 2.2869909,12.477367 L 2.206144,12.370286 2.9132295,11.454999 3.6203148,10.539713 3.528453,10.367464 C 3.4050649,10.136101 3.2822044,9.8420101 3.1926427,9.5636364 3.1520029,9.4373206 3.1185162,9.3326589 3.1182278,9.3310549 3.1179393,9.3294509 2.6052632,9.26196 1.9789474,9.181075 1.3526316,9.1001902 0.83858068,9.0324278 0.83661203,9.0304919 0.83464339,9.028556 0.81799729,8.902267 0.79962071,8.7498498 0.75355483,8.3677742 0.7537159,7.7294611 0.79998042,7.3244019 0.81921691,7.1559809 0.84044007,7.0122423 0.847143,7.004983 0.85384593,6.9977236 1.3671631,6.9262544 1.9878478,6.8461623 2.6085324,6.7660704 3.1170251,6.698804 3.1178314,6.6966817 3.1186371,6.6945594 3.1392488,6.6282297 3.1636339,6.5492823 3.2486293,6.2741079 3.342049,6.0402498 3.4753386,5.768991 3.5491493,5.6187782 3.6050434,5.4852854 3.5995478,5.4723403 3.5940521,5.4593952 3.2866339,5.0569378 2.916396,4.5779904 2.5461583,4.0990431 2.2395656,3.7012381 2.2350789,3.6939791 2.2305923,3.6867204 2.2977076,3.5919835 2.3842242,3.4834528 2.5934366,3.2210063 3.1997636,2.6167219 3.4612641,2.4100411 l 0.2095895,-0.1656522 0.067922,0.05115 c 0.037357,0.028132 0.4401215,0.3378817 0.8950316,0.6883317 0.4549098,0.3504502 0.8357982,0.637182 0.8464187,0.637182 0.01062,0 0.099187,-0.042655 0.1968144,-0.094788 0.2070459,-0.1105634 0.6280679,-0.2824429 0.8473611,-0.3459294 0.084211,-0.02438 0.1551106,-0.045565 0.157556,-0.047079 0.00245,-0.00151 0.069513,-0.5056199 0.1490404,-1.1202345 0.079527,-0.6146147 0.148213,-1.12109996 0.152636,-1.12552283 0.026654,-0.0266546 0.4486786,-0.0626346 0.8517724,-0.0726184 0.3628327,-0.008987 0.5436754,-0.004451 0.7994681,0.020053 0.1818129,0.0174167 0.3430619,0.0364607 0.3583311,0.0423201 0.035179,0.0134996 0.025064,-0.0515492 0.1826264,1.17442173 0.07373,0.5736843 0.1371308,1.0517932 0.1408904,1.0624643 0.00376,0.010671 0.074633,0.039178 0.1574966,0.063349 0.2218002,0.064698 0.5599192,0.2026173 0.8184512,0.3338471 0.191315,0.09711 0.233313,0.111961 0.263433,0.09315 0.02914,-0.018198 1.450266,-1.1086184 1.703635,-1.3071872 l 0.07026,-0.055068 0.188109,0.1501614 c 0.273952,0.2186879 0.565479,0.4873816 0.763782,0.7039592 0.206951,0.2260241 0.486527,0.5628343 0.486527,0.5861288 0,0.00912 -0.3041,0.4102678 -0.675777,0.8914488 -0.37168,0.4811812 -0.681652,0.8846959 -0.688829,0.8966993 -0.0072,0.012003 0.05544,0.162721 0.139147,0.3349283 0.08371,0.172207 0.19492,0.4408997 0.24714,0.5970945 0.05222,0.156195 0.0984,0.2874408 0.102611,0.2916574 0.0065,0.00652 2.207576,0.2951654 2.250765,0.2951654 0.01858,0 0.05168,0.2450335 0.08145,0.6028708 0.02541,0.3054075 0.01213,0.8781841 -0.02808,1.211102 -0.01434,0.1187376 -0.02996,0.2197726 -0.03471,0.2245223 -0.0047,0.00475 -0.511907,0.07355 -1.127016,0.1528903 -0.615109,0.07934 -1.125074,0.1463256 -1.133254,0.1488567 -0.0082,0.00253 -0.05807,0.1337106 -0.110854,0.29151 -0.05279,0.1577995 -0.165259,0.4297303 -0.249933,0.6042903 l -0.153953,0.317382 0.678407,0.879563 c 0.373124,0.483759 0.689593,0.897475 0.703265,0.919367 0.02256,0.03612 0.01296,0.05464 -0.103772,0.200184 -0.200857,0.250433 -0.533449,0.611221 -0.724488,0.785905 -0.211648,0.19353 -0.551441,0.474954 -0.573461,0.474954 -0.0088,0 -0.413957,-0.306916 -0.900303,-0.682035 -0.486347,-0.375119 -0.89832,-0.690811 -0.915496,-0.701537 -0.02403,-0.01501 -0.07941,0.0051 -0.24029,0.08743 -0.254118,0.129985 -0.5694875,0.260149 -0.8009467,0.330581 -0.094737,0.02883 -0.17803,0.05763 -0.1850958,0.06401 -0.010526,0.0095 -0.3029424,2.205356 -0.3029424,2.274895 0,0.03143 -0.038557,0.03901 -0.361533,0.07109 -0.252148,0.02504 -1.0171262,0.03814 -1.1121512,0.01904 z m 0.9107831,-4.746602 c 0.904152,-0.157671 1.6768835,-0.8344487 1.9657555,-1.7216579 0.09366,-0.2876576 0.11538,-0.4353745 0.11538,-0.784689 0,-0.4217806 -0.06137,-0.7110386 -0.228822,-1.0784834 C 10.151447,6.5838722 9.8002875,6.1622884 9.4813397,5.9383611 9.1832668,5.7290896 8.8002088,5.5688082 8.4432237,5.5039866 8.2031812,5.4603994 7.7874643,5.4613908 7.5483254,5.5061204 6.6291971,5.6780387 5.8806653,6.3267567 5.5863141,7.2065047 5.4955675,7.4777256 5.4571472,7.717733 5.4571472,8.0133971 c 0,0.8629849 0.4221826,1.6527991 1.1350488,2.1234359 0.3515519,0.232097 0.7294884,0.363885 1.2049332,0.420169 0.1185866,0.01404 0.4866,-0.0067 0.6619793,-0.03726 z"
     id="path3733"
     inkscape:connector-curvature="0" />
</svg>
